<svg width="14" height="16" viewBox="0 0 14 16" fill="none" xmlns="http://www.w3.org/2000/svg">
<path d="M7 8.75003C8.24264 8.75003 9.25 7.74267 9.25 6.50003C9.25 5.25739 8.24264 4.25003 7 4.25003C5.75736 4.25003 4.75 5.25739 4.75 6.50003C4.75 7.74267 5.75736 8.75003 7 8.75003Z" stroke="#6C757D" stroke-linecap="round" stroke-linejoin="round"/>
<path d="M7.00009 0.500015C5.40879 0.500015 3.88267 1.13216 2.75745 2.25737C1.63223 3.38259 1.00009 4.90872 1.00009 6.50002C1.00009 7.91902 1.30159 8.84752 2.12509 9.87502L7.00009 15.5L11.8751 9.87502C12.6986 8.84752 13.0001 7.91902 13.0001 6.50002C13.0001 4.90872 12.3679 3.38259 11.2427 2.25737C10.1175 1.13216 8.59139 0.500015 7.00009 0.500015V0.500015Z" stroke="#6C757D" stroke-linecap="round" stroke-linejoin="round"/>
</svg>
